<?xml version="1.0" encoding="UTF-8"?>
<svg id="Layer_1" data-name="Layer 1" xmlns="http://www.w3.org/2000/svg" version="1.1" viewBox="0 0 2000 2000">
  <defs>
    <style>
      .cls-1 {
        fill: #fff;
        stroke-width: 0px;
      }
    </style>
  </defs>
  <path class="cls-1" d="M441.17,846.25l-96.59-27.71c-32.74-9.5-57.03-23.88-72.85-43.15-15.83-19.26-23.74-41.04-23.74-65.32,0-20.05,4.91-37.47,14.73-52.26,9.82-14.77,23.6-26.13,41.34-34.05,17.73-7.92,38.33-11.88,61.8-11.88,37.11,0,69.44,8.98,97,26.92,27.55,17.95,47.89,44.34,60.99,79.18l57.3-22.17c-8.74-25.86-23.2-49.35-43.39-70.47-20.2-21.11-44.89-38.13-74.08-51.07-29.2-12.93-62.09-19.4-98.64-19.4s-66.18,6.87-93.73,20.59c-27.56,13.73-49.26,32.6-65.08,56.61-15.83,24.02-23.74,51.6-23.74,82.74,0,36.42,11.59,68.88,34.79,97.39,23.19,28.5,56.34,48.83,99.46,60.97l109.69,31.67c30.56,8.45,54.03,20.59,70.4,36.42,16.37,15.83,24.56,38.28,24.56,67.3,0,19.54-5.46,36.7-16.37,51.47-10.92,14.78-26.34,26.26-46.25,34.44-19.93,8.19-42.98,12.27-69.17,12.27-41.48,0-77.23-10.42-107.24-31.28-30.02-20.85-52.12-51.33-66.31-91.45l-58.94,21.38c9.27,29.04,24.83,55.56,46.66,79.58,21.82,24.03,48.56,43.15,80.22,57.41,31.64,14.25,66.84,21.38,105.6,21.38s72.98-6.87,102.73-20.59c29.74-13.72,52.93-32.59,69.58-56.61,16.64-24.01,24.97-51.86,24.97-83.53,0-39.06-12.28-71.52-36.84-97.39-24.56-25.86-60.86-45.65-108.87-59.39Z"/>
  <path class="cls-1" d="M985.8,751.46c-32.31-19.26-69.1-28.9-110.36-28.9-37.47,0-70.73,7.92-99.77,23.75-23.92,13.04-43.86,29.84-59.86,50.38v-64.63h-61.09v582.76h61.09v-227.52c14.58,22.43,33.99,40.35,58.23,53.73,30.13,16.63,63.94,24.94,101.4,24.94,41.26,0,78.05-9.63,110.36-28.9,32.3-19.26,57.83-45.65,76.56-79.18,18.73-33.52,28.1-71.39,28.1-113.62s-9.37-80.76-28.1-114.02c-18.73-33.26-44.26-59.51-76.56-78.78ZM1005.34,1027c-13.31,24.55-31.5,43.94-54.57,58.2-23.09,14.25-49.28,21.38-78.6,21.38s-55.79-7.13-79.41-21.38c-23.62-14.25-42.35-33.65-56.2-58.2-13.85-24.55-20.77-52.12-20.77-82.74s6.92-58.2,20.77-82.74c13.85-24.55,32.58-43.94,56.2-58.2,23.62-14.25,50.09-21.38,79.41-21.38s55.51,7.13,78.6,21.38c23.07,14.25,41.26,33.53,54.57,57.8,13.3,24.28,19.95,52,19.95,83.14s-6.66,58.2-19.95,82.74Z"/>
  <path class="cls-1" d="M1676.02,1030.74c0,41.17,10.29,72.85,30.88,95.01,20.59,22.17,49.88,33.26,87.89,33.26,4.75,0,11.08-.4,19-1.19,7.92-.79,15.04-1.98,21.38-3.56v-53.05c-4.23.53-9.24,1.07-15.04,1.58-5.81.53-10.82.79-15.04.79-17.42,0-31.28-3.17-41.57-9.5-10.29-6.33-17.55-14.91-21.77-25.73-4.23-10.81-6.33-23.36-6.33-37.61v-241.49h93.43v-59.39h-93.43v-98.18h-59.38v35.63c0,17.95-5.28,32.86-15.84,44.74-10.57,11.88-24.82,17.81-42.76,17.81h-19.79v59.39h78.39v241.49Z"/>
  <path class="cls-1" d="M1276.88,1271.1c11.23-6.58,24.09-9.87,38.58-9.87s26.55,3.43,36.77,10.27c10.21,6.85,17.73,15.79,22.56,26.81l25.07-10.94c-3.34-8.71-8.96-16.9-16.85-24.55-7.89-7.65-17.55-13.87-28.97-18.68-11.42-4.8-24.28-7.2-38.57-7.2s-28.23,2.53-40.67,7.6c-12.44,5.07-23.21,12.23-32.31,21.48-9.1,9.25-16.15,20.1-21.17,32.55-5.01,12.45-7.52,26.15-7.52,41.09s2.51,28.37,7.52,40.82c5.01,12.45,12.12,23.31,21.31,32.55,9.19,9.25,19.96,16.41,32.31,21.48,12.35,5.07,25.85,7.6,40.53,7.6s27.16-2.4,38.57-7.2c11.42-4.8,21.07-11.03,28.97-18.68,7.89-7.65,13.51-15.83,16.85-24.55l-25.07-10.94c-4.83,11.03-12.35,19.97-22.56,26.81-10.21,6.85-22.47,10.27-36.77,10.27s-27.34-3.29-38.58-9.87c-11.24-6.58-20.01-15.74-26.32-27.48-6.31-11.74-9.47-25.35-9.47-40.82s3.15-29.35,9.47-41.09c6.31-11.74,15.08-20.9,26.32-27.48Z"/>
  <path class="cls-1" d="M1507.96,1297.74c-8.73-4.28-18.85-6.42-30.36-6.42-8.91,0-17.46,1.55-25.62,4.64-8.17,3.1-15.32,7.33-21.45,12.7-6.13,5.37-10.58,11.43-13.37,18.17l22.56,11.47c3.16-7.1,8.03-12.79,14.62-17.07,6.59-4.28,14.16-6.42,22.7-6.42,9.84,0,17.78,2.51,23.81,7.51,6.03,5.01,9.05,11.52,9.05,19.53v6.73l-51.25,8.29c-11.14,1.82-20.38,4.92-27.71,9.29-7.34,4.37-12.72,9.7-16.15,15.98-3.44,6.28-5.15,13.34-5.15,21.17s2.13,15.44,6.41,21.72c4.27,6.28,10.17,11.2,17.69,14.75,7.52,3.55,16.2,5.33,26.04,5.33,8.54,0,16.43-1.28,23.67-3.82,7.24-2.55,13.55-6.01,18.94-10.38,3.07-2.49,5.73-5.25,8.08-8.21v19.14h25.35v-99.99c0-10.01-2.46-18.8-7.38-26.36-4.92-7.56-11.75-13.48-20.47-17.76ZM1509.91,1379.29c0,8.2-2,15.67-5.99,22.4-3.99,6.74-9.47,12.07-16.43,15.98-6.96,3.92-15.18,5.87-24.65,5.87-7.43,0-13.6-2-18.52-6.01-4.92-4-7.38-9.02-7.38-15.03,0-6.37,2.18-11.75,6.55-16.12,4.36-4.37,11.37-7.38,21.03-9.02l45.4-7.46v9.38Z"/>
  <path class="cls-1" d="M1679.44,1301.78c-11.24-6.58-23.91-9.87-38.02-9.87-12.44,0-23.49,2.53-33.14,7.6-7.58,3.98-13.88,9.04-18.94,15.16v-77.73h-25.9v201.98h25.35v-20.91c5.02,6.8,11.46,12.27,19.36,16.37,9.93,5.16,20.93,7.74,33.01,7.74,14.3,0,27.06-3.29,38.3-9.87,11.23-6.58,20.1-15.56,26.6-26.95,6.5-11.38,9.75-24.1,9.75-38.16s-3.25-27.26-9.75-38.56c-6.5-11.29-15.37-20.23-26.6-26.81ZM1681.95,1393.17c-4.18,7.74-9.98,13.83-17.41,18.28-7.43,4.45-15.88,6.67-25.35,6.67s-17.96-2.22-25.48-6.67c-7.52-4.44-13.47-10.54-17.83-18.28-4.37-7.74-6.55-16.41-6.55-26.02s2.18-18.54,6.55-26.28c4.36-7.74,10.31-13.83,17.83-18.28,7.52-4.44,16.02-6.67,25.48-6.67s17.92,2.27,25.35,6.8c7.42,4.54,13.23,10.59,17.41,18.14,4.18,7.56,6.27,16.32,6.27,26.28s-2.09,18.28-6.27,26.02Z"/>
  <path class="cls-1" d="M1832.69,1375.79c-6.8-7.07-16.33-12.29-28.61-15.66l-24.57-6.9c-2.98-.88-6.05-1.99-9.21-3.32-3.17-1.33-5.86-3.27-8.1-5.84-2.23-2.56-3.35-5.88-3.35-9.95,0-5.48,2.23-10.04,6.7-13.67,4.47-3.62,10.51-5.44,18.15-5.44,8.38,0,15.91,2.17,22.61,6.5,6.7,4.34,11.73,10.22,15.08,17.65l21.22-9.29c-4.47-11.5-11.96-20.43-22.47-26.8-10.52-6.37-22.38-9.55-35.59-9.55-9.87,0-18.75,1.77-26.66,5.31-7.91,3.54-14.15,8.45-18.7,14.73-4.56,6.28-6.84,13.67-6.84,22.16,0,9.2,3.11,17.25,9.35,24.15,6.23,6.9,16.14,12.21,29.73,15.92l22.61,6.1c2.98.71,6.23,1.82,9.77,3.32,3.53,1.5,6.56,3.54,9.07,6.1,2.51,2.57,3.77,5.97,3.77,10.22,0,6.02-2.7,10.88-8.1,14.59-5.4,3.71-12.19,5.57-20.38,5.57-9.12,0-17.4-2.47-24.85-7.43-7.45-4.95-13.31-11.68-17.59-20.17l-20.66,9.55c4.65,12.03,12.56,21.59,23.73,28.66,11.17,7.08,24.29,10.61,39.36,10.61,10.79,0,20.28-1.77,28.47-5.31,8.19-3.54,14.61-8.49,19.26-14.86,4.65-6.37,6.98-13.53,6.98-21.49,0-9.91-3.4-18.4-10.19-25.47Z"/>
  <path class="cls-1" d="M1517.73,789.28c-86.45-88.02-229.42-89.11-317.14-2.35-81.4,80.51-88.02,207.81-19.86,295.92,5.77,7.49,12.11,14.69,18.97,21.54l.21.21c11.22,11.21,29.4,11.2,40.61-.01l20.86-20.86,127.57-127.57v79.7s40.75-40.76,40.75-40.76l.02-70.7v-50.01s-50.01,0-50.01,0h-70.7s-40.76,40.77-40.76,40.77h80.2s-119.77,119.76-119.77,119.76c-4.26,4.26-11.41,3.38-14.5-1.79-37.81-63.26-29.27-146.52,25.64-200.75,62.69-61.92,164.54-62.87,228.31-2.07,66.89,63.77,67.84,169.74,2.87,234.72-41.07,41.07-98.49,55.79-151.28,44.2-2.1-.46-4.29.15-5.81,1.67l-35.15,35.15c-3.22,3.22-2.05,8.74,2.24,10.31,79.27,28.98,171.67,11.67,235.29-51.95,86.93-86.93,87.41-227.59,1.45-315.11Z"/>
</svg>