<?xml version="1.0" encoding="UTF-8"?>
<svg id="svg1" xmlns="http://www.w3.org/2000/svg" version="1.1" xmlns:inkscape="http://www.inkscape.org/namespaces/inkscape" xmlns:sodipodi="http://sodipodi.sourceforge.net/DTD/sodipodi-0.dtd" xmlns:svg="http://www.w3.org/2000/svg" xmlns:xlink="http://www.w3.org/1999/xlink" viewBox="0 0 2476.7 1372.9">
  <defs>
    <style>
      .cls-1 {
        fill: #000;
      }

      .cls-1, .cls-2 {
        stroke-width: 0px;
      }

      .cls-3 {
        clip-path: url(#clippath-2);
      }

      .cls-4 {
        clip-path: url(#clippath-6);
      }

      .cls-2 {
        fill: none;
      }

      .cls-5 {
        clip-path: url(#clippath-7);
      }

      .cls-6 {
        clip-path: url(#clippath-1);
      }

      .cls-7 {
        clip-path: url(#clippath-4);
      }

      .cls-8 {
        clip-path: url(#clippath);
      }

      .cls-9 {
        clip-path: url(#clippath-3);
      }

      .cls-10 {
        clip-path: url(#clippath-5);
      }
    </style>
    <clipPath id="clippath">
      <rect class="cls-2" x="-95" y="-646.9" width="2666.7" height="2666.7"/>
    </clipPath>
    <clipPath id="clippath-1">
      <rect class="cls-2" x="-95" y="-646.9" width="2666.7" height="2666.7"/>
    </clipPath>
    <clipPath id="clippath-2">
      <rect class="cls-2" x="-95" y="-646.9" width="2666.7" height="2666.7"/>
    </clipPath>
    <clipPath id="clippath-3">
      <rect class="cls-2" x="-95" y="-646.9" width="2666.7" height="2666.7"/>
    </clipPath>
    <clipPath id="clippath-4">
      <rect class="cls-2" x="-95" y="-646.9" width="2666.7" height="2666.7"/>
    </clipPath>
    <clipPath id="clippath-5">
      <rect class="cls-2" x="-95" y="-646.9" width="2666.7" height="2666.7"/>
    </clipPath>
    <clipPath id="clippath-6">
      <rect class="cls-2" x="-95" y="-646.9" width="2666.7" height="2666.7"/>
    </clipPath>
    <clipPath id="clippath-7">
      <rect class="cls-2" x="-95" y="-646.9" width="2666.7" height="2666.7"/>
    </clipPath>
  </defs>
  <sodipodi:namedview id="namedview1" bordercolor="#000000" borderopacity="0.25" inkscape:deskcolor="#d1d1d1" inkscape:pagecheckerboard="0" inkscape:pageopacity="0.0" inkscape:showpageshadow="2" pagecolor="#ffffff">
    <inkscape:page id="page1" x="0" y="0" width="2666.6667" height="2666.6667" bleed="0" inkscape:label="1" margin="739.82532 209.49333 739.82666 209.49066"/>
  </sodipodi:namedview>
  <g id="layer-MC0" inkscape:groupmode="layer" inkscape:label="Layer 1">
    <g class="cls-8">
      <path id="path1" class="cls-1" d="M493.2,481.4l-128.8-36.9c-43.7-12.7-76-31.8-97.1-57.5-21.1-25.7-31.7-54.7-31.7-87.1s6.5-50,19.6-69.7c13.1-19.7,31.5-34.8,55.1-45.4,23.6-10.6,51.1-15.8,82.4-15.8,49.5,0,92.6,12,129.3,35.9,36.7,23.9,63.9,59.1,81.3,105.6l76.4-29.6c-11.6-34.5-30.9-65.8-57.8-94-26.9-28.1-59.9-50.8-98.8-68.1-38.9-17.2-82.8-25.9-131.5-25.9s-88.2,9.2-125,27.4c-36.8,18.3-65.7,43.5-86.8,75.5-21.1,32-31.7,68.8-31.7,110.3s15.5,91.8,46.4,129.9c30.9,38,75.1,65.1,132.6,81.3l146.3,42.2c40.7,11.3,72,27.4,93.9,48.6,21.8,21.1,32.7,51,32.7,89.7s-7.3,48.9-21.8,68.6c-14.6,19.7-35.1,35-61.7,45.9-26.6,10.9-57.3,16.4-92.2,16.4-55.3,0-103-13.9-143-41.7-40-27.8-69.5-68.4-88.4-121.9l-78.6,28.5c12.4,38.7,33.1,74.1,62.2,106.1,29.1,32,64.8,57.5,107,76.5,42.2,19,89.1,28.5,140.8,28.5s97.3-9.2,137-27.5c39.7-18.3,70.6-43.4,92.8-75.5,22.2-32,33.3-69.2,33.3-111.4s-16.4-95.4-49.1-129.9c-32.7-34.5-81.1-60.9-145.2-79.2"/>
    </g>
    <g class="cls-6">
      <path id="path3" class="cls-1" d="M1245.5,722.4c-17.7,32.7-42,58.6-72.8,77.6-30.8,19-65.7,28.5-104.8,28.5s-74.4-9.5-105.9-28.5c-31.5-19-56.5-44.9-74.9-77.6-18.5-32.7-27.7-69.5-27.7-110.3s9.2-77.6,27.7-110.3c18.5-32.7,43.4-58.6,74.9-77.6,31.5-19,66.8-28.5,105.9-28.5s74,9.5,104.8,28.5c30.8,19,55,44.7,72.8,77.1,17.7,32.4,26.6,69.3,26.6,110.8s-8.9,77.6-26.6,110.3M1219.4,355.1c-43.1-25.7-92.1-38.5-147.1-38.5s-94.3,10.6-133,31.7c-31.9,17.4-58.5,39.8-79.8,67.2v-86.2h-81.4v777h81.4v-303.4c19.4,29.9,45.3,53.8,77.6,71.6,40.2,22.2,85.2,33.3,135.2,33.3s104.1-12.8,147.1-38.5c43.1-25.7,77.1-60.9,102.1-105.6,25-44.7,37.5-95.2,37.5-151.5s-12.5-107.7-37.5-152c-25-44.3-59-79.3-102.1-105"/>
    </g>
    <g class="cls-3">
      <path id="path5" class="cls-1" d="M2139.7,727.4c0,54.9,13.7,97.1,41.2,126.7,27.4,29.6,66.5,44.3,117.2,44.3s14.8-.5,25.3-1.6c10.6-1.1,20.1-2.6,28.5-4.8v-70.7c-5.6.7-12.3,1.4-20.1,2.1-7.8.7-14.4,1.1-20.1,1.1-23.2,0-41.7-4.2-55.4-12.7s-23.4-19.9-29-34.3c-5.6-14.4-8.4-31.1-8.4-50.1v-322h124.6v-79.2h-124.6v-130.9h-79.2v47.5c0,23.9-7,43.8-21.1,59.6-14.1,15.8-33.1,23.8-57,23.8h-26.4v79.2h104.5v322Z"/>
    </g>
    <g class="cls-9">
      <path id="path7" class="cls-1" d="M1607.5,1047.9c15-8.8,32.1-13.2,51.4-13.2s35.4,4.6,49,13.7c13.6,9.1,23.6,21.1,30.1,35.8l33.4-14.6c-4.5-11.6-11.9-22.5-22.5-32.7-10.5-10.2-23.4-18.5-38.6-24.9-15.2-6.4-32.4-9.6-51.4-9.6s-37.6,3.4-54.2,10.1c-16.6,6.8-30.9,16.3-43.1,28.6-12.1,12.3-21.5,26.8-28.2,43.4-6.7,16.6-10,34.9-10,54.8s3.3,37.8,10,54.4c6.7,16.6,16.2,31.1,28.4,43.4,12.3,12.3,26.6,21.9,43.1,28.6,16.5,6.8,34.5,10.1,54,10.1s36.2-3.2,51.4-9.6c15.2-6.4,28.1-14.7,38.6-24.9,10.5-10.2,18-21.1,22.5-32.7l-33.4-14.6c-6.4,14.7-16.5,26.6-30.1,35.8-13.6,9.1-30,13.7-49,13.7s-36.5-4.4-51.4-13.2c-15-8.8-26.7-21-35.1-36.6-8.4-15.7-12.6-33.8-12.6-54.4s4.2-39.1,12.6-54.8c8.4-15.7,20.1-27.9,35.1-36.6"/>
    </g>
    <g class="cls-7">
      <path id="path9" class="cls-1" d="M1918.2,1192.2c0,10.9-2.7,20.9-8,29.9-5.3,9-12.6,16.1-21.9,21.3-9.3,5.2-20.2,7.8-32.9,7.8s-18.1-2.7-24.7-8c-6.6-5.3-9.8-12-9.8-20s2.9-15.7,8.7-21.5c5.8-5.8,15.2-9.8,28-12l60.5-9.9v12.5ZM1915.6,1083.4c-11.6-5.7-25.1-8.6-40.5-8.6s-23.3,2.1-34.2,6.2c-10.9,4.1-20.4,9.8-28.6,16.9-8.2,7.2-14.1,15.2-17.8,24.2l30.1,15.3c4.2-9.5,10.7-17.1,19.5-22.8,8.8-5.7,18.9-8.6,30.3-8.6s23.7,3.3,31.8,10c8,6.7,12.1,15.4,12.1,26v9l-68.3,11.1c-14.9,2.4-27.2,6.6-36.9,12.4-9.8,5.8-17,12.9-21.5,21.3-4.6,8.4-6.9,17.8-6.9,28.2s2.8,20.6,8.5,29c5.7,8.4,13.6,14.9,23.6,19.7,10,4.7,21.6,7.1,34.7,7.1s21.9-1.7,31.6-5.1c9.7-3.4,18.1-8,25.3-13.8,4.1-3.3,7.6-7,10.8-10.9v25.5h33.8v-133.3c0-13.4-3.3-25.1-9.8-35.2-6.6-10.1-15.7-18-27.3-23.7"/>
    </g>
    <g class="cls-10">
      <path id="path11" class="cls-1" d="M2147.6,1210.7c-5.6,10.3-13.3,18.4-23.2,24.4-9.9,5.9-21.2,8.9-33.8,8.9s-24-3-34-8.9c-10-5.9-18-14.1-23.8-24.4-5.8-10.3-8.7-21.9-8.7-34.7s2.9-24.7,8.7-35c5.8-10.3,13.7-18.4,23.8-24.4,10-5.9,21.4-8.9,34-8.9s23.9,3,33.8,9.1c9.9,6,17.6,14.1,23.2,24.2,5.6,10.1,8.4,21.8,8.4,35s-2.8,24.4-8.4,34.7M2144.2,1088.8c-15-8.8-31.9-13.2-50.7-13.2s-31.3,3.4-44.2,10.1c-10.1,5.3-18.5,12.1-25.3,20.2v-103.6h-34.5v269.3h33.8v-27.9c6.7,9.1,15.3,16.4,25.8,21.8,13.2,6.9,27.9,10.3,44,10.3s36.1-4.4,51.1-13.2c15-8.8,26.8-20.8,35.5-35.9,8.7-15.2,13-32.1,13-50.9s-4.3-36.3-13-51.4c-8.7-15.1-20.5-27-35.5-35.8"/>
    </g>
    <g class="cls-4">
      <path id="path13" class="cls-1" d="M2348.6,1187.5c-9.1-9.4-21.8-16.4-38.2-20.9l-32.8-9.2c-4-1.2-8.1-2.7-12.3-4.4-4.2-1.8-7.8-4.4-10.8-7.8-3-3.4-4.5-7.8-4.5-13.3s3-13.4,8.9-18.2c6-4.8,14-7.3,24.2-7.3s21.2,2.9,30.2,8.7c8.9,5.8,15.6,13.6,20.1,23.5l28.3-12.4c-6-15.3-15.9-27.2-30-35.7-14-8.5-29.8-12.7-47.5-12.7s-25,2.4-35.5,7.1c-10.6,4.7-18.9,11.3-24.9,19.6-6.1,8.4-9.1,18.2-9.1,29.5s4.2,23,12.5,32.2c8.3,9.2,21.5,16.3,39.6,21.2l30.1,8.1c4,.9,8.3,2.4,13,4.4,4.7,2,8.7,4.7,12.1,8.1,3.3,3.4,5,8,5,13.6,0,8-3.6,14.5-10.8,19.5-7.2,5-16.3,7.4-27.2,7.4s-23.2-3.3-33.1-9.9c-9.9-6.6-17.7-15.6-23.5-26.9l-27.5,12.7c6.2,16,16.8,28.8,31.6,38.2,14.9,9.4,32.4,14.2,52.5,14.2s27-2.4,38-7.1c10.9-4.7,19.5-11.3,25.7-19.8,6.2-8.5,9.3-18,9.3-28.7,0-13.2-4.5-24.5-13.6-34"/>
    </g>
    <g class="cls-5">
      <path id="path15" class="cls-1" d="M1928.6,405.5c-115.3-117.4-305.9-118.8-422.8-3.1-108.5,107.4-117.4,277.1-26.5,394.6,7.7,10,16.1,19.6,25.3,28.7l.3.3c15,14.9,39.2,14.9,54.1,0l27.8-27.8,170.1-170.1v106.3s54.3-54.3,54.3-54.3v-94.3s0-66.7,0-66.7h-160.9s-54.3,54.4-54.3,54.4h106.9s-159.7,159.7-159.7,159.7c-5.7,5.7-15.2,4.5-19.3-2.4-50.4-84.3-39-195.4,34.2-267.7,83.6-82.6,219.4-83.8,304.4-2.8,89.2,85,90.5,226.3,3.8,313-54.8,54.8-131.3,74.4-201.7,58.9-2.8-.6-5.7.2-7.7,2.2l-46.9,46.9c-4.3,4.3-2.7,11.7,3,13.7,105.7,38.6,228.9,15.6,313.7-69.3,115.9-115.9,116.5-303.4,1.9-420.1"/>
    </g>
  </g>
</svg>